<svg width="38" height="60" viewBox="0 0 38 60" fill="none" xmlns="http://www.w3.org/2000/svg">
<g opacity="0.5">
<path d="M10 0.5H37.2953V50C37.2953 55.2467 33.042 59.5 27.7953 59.5H0.5V10C0.5 4.7533 4.75329 0.5 10 0.5Z" stroke="white"/>
<path d="M9.09528 30.3536C8.90001 30.1583 8.90001 29.8417 9.09528 29.6464L12.2773 26.4645C12.4725 26.2692 12.7891 26.2692 12.9844 26.4645C13.1796 26.6597 13.1796 26.9763 12.9844 27.1716L10.1559 30L12.9844 32.8284C13.1796 33.0237 13.1796 33.3403 12.9844 33.5355C12.7891 33.7308 12.4725 33.7308 12.2773 33.5355L9.09528 30.3536ZM28.3465 30.5L9.44883 30.5L9.44883 29.5L28.3465 29.5L28.3465 30.5Z" fill="white"/>
</g>
</svg>
