<svg width="38" height="60" viewBox="0 0 38 60" fill="none" xmlns="http://www.w3.org/2000/svg">
<g opacity="0.5">
<path d="M10.2048 0.5H37.5001V50C37.5001 55.2467 33.2468 59.5 28.0001 59.5H0.704834V10C0.704834 4.7533 4.95813 0.5 10.2048 0.5Z" stroke="white"/>
<path d="M28.9048 30.3536C29.1 30.1583 29.1 29.8417 28.9048 29.6464L25.7228 26.4645C25.5275 26.2692 25.2109 26.2692 25.0157 26.4645C24.8204 26.6597 24.8204 26.9763 25.0157 27.1716L27.8441 30L25.0157 32.8284C24.8204 33.0237 24.8204 33.3403 25.0157 33.5355C25.2109 33.7308 25.5275 33.7308 25.7228 33.5355L28.9048 30.3536ZM9.65356 30.5L28.5512 30.5L28.5512 29.5L9.65356 29.5L9.65356 30.5Z" fill="white"/>
</g>
</svg>
