<svg width="25" height="24" viewBox="0 0 25 24" fill="none" xmlns="http://www.w3.org/2000/svg">
<g clip-path="url(#clip0_37090_16)">
<path d="M12.4657 5.76825C8.93539 5.76825 6.06325 8.5638 6.06325 12C6.06325 15.4362 8.93539 18.2293 12.4657 18.2293C15.9961 18.2293 18.8657 15.4338 18.8657 12C18.8682 8.5638 15.9961 5.76825 12.4657 5.76825ZM12.4657 15.8536C10.2817 15.8536 8.50656 14.1258 8.50656 12C8.50656 9.87422 10.2817 8.14641 12.4657 8.14641C14.6498 8.14641 16.4249 9.87422 16.4249 12C16.4249 14.1258 14.6498 15.8536 12.4657 15.8536ZM17.6989 0H7.23255C3.32075 0 0.136963 3.09889 0.136963 6.90637V17.0936C0.136963 20.9011 3.32075 24 7.23255 24H17.6989C21.6107 24 24.7945 20.9011 24.7945 17.0936V6.90637C24.7945 3.09889 21.6132 0 17.6989 0ZM22.3537 17.0936C22.3537 19.5907 20.2644 21.6218 17.6989 21.6218H7.23255C4.66707 21.6218 2.58028 19.5907 2.58028 17.0936V6.90637C2.58028 4.4093 4.66707 2.37816 7.23255 2.37816H17.6989C20.2644 2.37816 22.3512 4.4093 22.3512 6.90637V17.0936H22.3537ZM18.9555 3.96764C18.033 3.96764 17.2801 4.69808 17.2801 5.59838C17.2801 6.49626 18.0305 7.22912 18.9555 7.22912C19.878 7.22912 20.6309 6.49869 20.6309 5.59838C20.6309 4.69808 19.878 3.96764 18.9555 3.96764Z" fill="#C0C0C0"/>
</g>
<defs>
<clipPath id="clip0_37090_16">
<rect width="24.6575" height="24" fill="white" transform="translate(0.136963)"/>
</clipPath>
</defs>
</svg>
