<svg width="26" height="24" viewBox="0 0 26 24" fill="none" xmlns="http://www.w3.org/2000/svg">
<g clip-path="url(#clip0_37090_11)">
<path d="M25.5891 4.55654C24.6818 4.94873 23.7068 5.21203 22.684 5.3327C23.7294 4.72384 24.5296 3.75844 24.9072 2.60928C23.9294 3.17426 22.8446 3.58291 21.695 3.80506C20.7736 2.84789 19.4578 2.25 18.0039 2.25C15.2087 2.25 12.9433 4.45232 12.9433 7.173C12.9433 7.5597 12.9884 7.93544 13.0729 8.29473C8.86893 8.08903 5.14114 6.1308 2.64749 3.14958C2.21356 3.87637 1.96279 4.72384 1.96279 5.62616C1.96279 7.33481 2.856 8.84051 4.2113 9.72363C3.3829 9.69894 2.6024 9.47679 1.92052 9.10654V9.16962C1.92052 11.5557 3.66467 13.5441 5.97799 13.9966C5.55533 14.1091 5.10732 14.1694 4.64522 14.1694C4.31837 14.1694 4.00279 14.1392 3.69566 14.0816C4.3381 16.0371 6.20622 17.4605 8.4181 17.5017C6.68804 18.8209 4.50997 19.608 2.13749 19.608C1.72892 19.608 1.32881 19.5861 0.931519 19.5395C3.17158 20.9354 5.82865 21.75 8.68578 21.75C17.9898 21.75 23.0785 14.2489 23.0785 7.74346C23.0785 7.52954 23.0729 7.31835 23.0644 7.10717C24.0534 6.41055 24.9128 5.54388 25.5891 4.55654Z" fill="#C0C0C0"/>
</g>
<defs>
<clipPath id="clip0_37090_11">
<rect width="24.6575" height="24" fill="white" transform="translate(0.931519)"/>
</clipPath>
</defs>
</svg>
