<?xml version="1.0" encoding="utf-8"?>
<!-- Generator: Adobe Illustrator 24.1.2, SVG Export Plug-In . SVG Version: 6.00 Build 0)  -->
<svg version="1.1" id="Capa_1" xmlns="http://www.w3.org/2000/svg" xmlns:xlink="http://www.w3.org/1999/xlink" x="0px" y="0px"
	 viewBox="0 0 84.1 84.1" style="enable-background:new 0 0 84.1 84.1;" xml:space="preserve">
<style type="text/css">
	.st0{fill:#FFFFFF;}
</style>
<g id="_x37_7_Essential_Icons_31_">
	<path id="Location_Pin" class="st0" d="M42,0C26.6,0,14,12.4,14,27.7c0,32.6,25.6,54.9,26.7,55.9c0.7,0.6,1.9,0.6,2.6,0
		c1.1-1,26.7-23.4,26.7-55.9C70,12.4,57.4,0,42,0z M42,79.3c-5.2-5-24-25-24-51.6C18,14.6,28.8,4,42,4s24,10.6,24,23.7
		C66,54.3,47.2,74.3,42,79.3z M42,12c-8.8,0-16,7.2-16,16s7.2,16,16,16s16-7.2,16-16S50.8,12,42,12z M42,40c-6.6,0-12-5.4-12-12
		s5.4-12,12-12s12,5.4,12,12S48.6,40,42,40z"/>
</g>
</svg>
